<svg xmlns="http://www.w3.org/2000/svg" width="900" height="506" viewBox="0 0 900 506" preserveAspectRatio="xMidYMid slice">
<polygon points="26.0,-15.0 26.0,15.0 0.0,30.0 -26.0,15.0 -26.0,-15.0 -0.0,-30.0" fill="rgb(23, 194, 238)" stroke="none"/>
<polygon points="71.0,-15.0 71.0,15.0 45.0,30.0 19.0,15.0 19.0,-15.0 45.0,-30.0" fill="rgb(25, 190, 243)" stroke="none"/>
<polygon points="116.0,-15.0 116.0,15.0 90.0,30.0 64.0,15.0 64.0,-15.0 90.0,-30.0" fill="rgb(27, 180, 250)" stroke="none"/>
<polygon points="161.0,-15.0 161.0,15.0 135.0,30.0 109.0,15.0 109.0,-15.0 135.0,-30.0" fill="rgb(27, 175, 252)" stroke="none"/>
<polygon points="206.0,-15.0 206.0,15.0 180.0,30.0 154.0,15.0 154.0,-15.0 180.0,-30.0" fill="rgb(28, 174, 253)" stroke="none"/>
<polygon points="251.0,-15.0 251.0,15.0 225.0,30.0 199.0,15.0 199.0,-15.0 225.0,-30.0" fill="rgb(30, 181, 247)" stroke="none"/>
<polygon points="296.0,-15.0 296.0,15.0 270.0,30.0 244.0,15.0 244.0,-15.0 270.0,-30.0" fill="rgb(32, 197, 236)" stroke="none"/>
<polygon points="341.0,-15.0 341.0,15.0 315.0,30.0 289.0,15.0 289.0,-15.0 315.0,-30.0" fill="rgb(39, 208, 226)" stroke="none"/>
<polygon points="386.0,-15.0 386.0,15.0 360.0,30.0 334.0,15.0 334.0,-15.0 360.0,-30.0" fill="rgb(126, 207, 172)" stroke="none"/>
<polygon points="431.0,-15.0 431.0,15.0 405.0,30.0 379.0,15.0 379.0,-15.0 405.0,-30.0" fill="rgb(244, 191, 96)" stroke="none"/>
<polygon points="476.0,-15.0 476.0,15.0 450.0,30.0 424.0,15.0 424.0,-15.0 450.0,-30.0" fill="rgb(244, 190, 96)" stroke="none"/>
<polygon points="521.0,-15.0 521.0,15.0 495.0,30.0 469.0,15.0 469.0,-15.0 495.0,-30.0" fill="rgb(235, 149, 111)" stroke="none"/>
<polygon points="566.0,-15.0 566.0,15.0 540.0,30.0 514.0,15.0 514.0,-15.0 540.0,-30.0" fill="rgb(244, 123, 114)" stroke="none"/>
<polygon points="611.0,-15.0 611.0,15.0 585.0,30.0 559.0,15.0 559.0,-15.0 585.0,-30.0" fill="rgb(202, 103, 125)" stroke="none"/>
<polygon points="656.0,-15.0 656.0,15.0 630.0,30.0 604.0,15.0 604.0,-15.0 630.0,-30.0" fill="rgb(150, 94, 129)" stroke="none"/>
<polygon points="701.0,-15.0 701.0,15.0 675.0,30.0 649.0,15.0 649.0,-15.0 675.0,-30.0" fill="rgb(115, 86, 133)" stroke="none"/>
<polygon points="746.0,-15.0 746.0,15.0 720.0,30.0 694.0,15.0 694.0,-15.0 720.0,-30.0" fill="rgb(115, 85, 134)" stroke="none"/>
<polygon points="791.0,-15.0 791.0,15.0 765.0,30.0 739.0,15.0 739.0,-15.0 765.0,-30.0" fill="rgb(97, 90, 134)" stroke="none"/>
<polygon points="836.0,-15.0 836.0,15.0 810.0,30.0 784.0,15.0 784.0,-15.0 810.0,-30.0" fill="rgb(46, 99, 133)" stroke="none"/>
<polygon points="881.0,-15.0 881.0,15.0 855.0,30.0 829.0,15.0 829.0,-15.0 855.0,-30.0" fill="rgb(26, 102, 133)" stroke="none"/>
<polygon points="926.0,-15.0 926.0,15.0 900.0,30.0 874.0,15.0 874.0,-15.0 900.0,-30.0" fill="rgb(27, 103, 133)" stroke="none"/>
<polygon points="48.5,24.0 48.5,54.0 22.5,69.0 -3.5,54.0 -3.5,24.0 22.5,9.0" fill="rgb(25, 187, 243)" stroke="none"/>
<polygon points="93.5,24.0 93.5,54.0 67.5,69.0 41.5,54.0 41.5,24.0 67.5,9.0" fill="rgb(27, 183, 247)" stroke="none"/>
<polygon points="138.5,24.0 138.5,54.0 112.5,69.0 86.5,54.0 86.5,24.0 112.5,9.0" fill="rgb(27, 175, 252)" stroke="none"/>
<polygon points="183.5,24.0 183.5,54.0 157.5,69.0 131.5,54.0 131.5,24.0 157.5,9.0" fill="rgb(28, 174, 252)" stroke="none"/>
<polygon points="228.5,24.0 228.5,54.0 202.5,69.0 176.5,54.0 176.5,24.0 202.5,9.0" fill="rgb(35, 182, 245)" stroke="none"/>
<polygon points="273.5,24.0 273.5,54.0 247.5,69.0 221.5,54.0 221.5,24.0 247.5,9.0" fill="rgb(62, 197, 224)" stroke="none"/>
<polygon points="318.5,24.0 318.5,54.0 292.5,69.0 266.5,54.0 266.5,24.0 292.5,9.0" fill="rgb(69, 203, 215)" stroke="none"/>
<polygon points="363.5,24.0 363.5,54.0 337.5,69.0 311.5,54.0 311.5,24.0 337.5,9.0" fill="rgb(93, 194, 196)" stroke="none"/>
<polygon points="408.5,24.0 408.5,54.0 382.5,69.0 356.5,54.0 356.5,24.0 382.5,9.0" fill="rgb(190, 197, 139)" stroke="none"/>
<polygon points="453.5,24.0 453.5,54.0 427.5,69.0 401.5,54.0 401.5,24.0 427.5,9.0" fill="rgb(238, 182, 102)" stroke="none"/>
<polygon points="498.5,24.0 498.5,54.0 472.5,69.0 446.5,54.0 446.5,24.0 472.5,9.0" fill="rgb(221, 144, 112)" stroke="none"/>
<polygon points="543.5,24.0 543.5,54.0 517.5,69.0 491.5,54.0 491.5,24.0 517.5,9.0" fill="rgb(214, 114, 119)" stroke="none"/>
<polygon points="588.5,24.0 588.5,54.0 562.5,69.0 536.5,54.0 536.5,24.0 562.5,9.0" fill="rgb(188, 99, 125)" stroke="none"/>
<polygon points="633.5,24.0 633.5,54.0 607.5,69.0 581.5,54.0 581.5,24.0 607.5,9.0" fill="rgb(143, 94, 130)" stroke="none"/>
<polygon points="678.5,24.0 678.5,54.0 652.5,69.0 626.5,54.0 626.5,24.0 652.5,9.0" fill="rgb(119, 93, 131)" stroke="none"/>
<polygon points="723.5,24.0 723.5,54.0 697.5,69.0 671.5,54.0 671.5,24.0 697.5,9.0" fill="rgb(118, 87, 132)" stroke="none"/>
<polygon points="768.5,24.0 768.5,54.0 742.5,69.0 716.5,54.0 716.5,24.0 742.5,9.0" fill="rgb(101, 88, 133)" stroke="none"/>
<polygon points="813.5,24.0 813.5,54.0 787.5,69.0 761.5,54.0 761.5,24.0 787.5,9.0" fill="rgb(70, 95, 133)" stroke="none"/>
<polygon points="858.5,24.0 858.5,54.0 832.5,69.0 806.5,54.0 806.5,24.0 832.5,9.0" fill="rgb(30, 101, 133)" stroke="none"/>
<polygon points="903.5,24.0 903.5,54.0 877.5,69.0 851.5,54.0 851.5,24.0 877.5,9.0" fill="rgb(26, 103, 133)" stroke="none"/>
<polygon points="948.5,24.0 948.5,54.0 922.5,69.0 896.5,54.0 896.5,24.0 922.5,9.0" fill="rgb(27, 103, 133)" stroke="none"/>
<polygon points="26.0,62.9 26.0,92.9 0.0,107.9 -26.0,92.9 -26.0,62.9 -0.0,47.9" fill="rgb(28, 185, 246)" stroke="none"/>
<polygon points="71.0,62.9 71.0,92.9 45.0,107.9 19.0,92.9 19.0,62.9 45.0,47.9" fill="rgb(27, 181, 248)" stroke="none"/>
<polygon points="116.0,62.9 116.0,92.9 90.0,107.9 64.0,92.9 64.0,62.9 90.0,47.9" fill="rgb(27, 177, 251)" stroke="none"/>
<polygon points="161.0,62.9 161.0,92.9 135.0,107.9 109.0,92.9 109.0,62.9 135.0,47.9" fill="rgb(40, 179, 243)" stroke="none"/>
<polygon points="206.0,62.9 206.0,92.9 180.0,107.9 154.0,92.9 154.0,62.9 180.0,47.9" fill="rgb(31, 181, 247)" stroke="none"/>
<polygon points="251.0,62.9 251.0,92.9 225.0,107.9 199.0,92.9 199.0,62.9 225.0,47.9" fill="rgb(60, 208, 219)" stroke="none"/>
<polygon points="296.0,62.9 296.0,92.9 270.0,107.9 244.0,92.9 244.0,62.9 270.0,47.9" fill="rgb(69, 210, 212)" stroke="none"/>
<polygon points="341.0,62.9 341.0,92.9 315.0,107.9 289.0,92.9 289.0,62.9 315.0,47.9" fill="rgb(126, 180, 177)" stroke="none"/>
<polygon points="386.0,62.9 386.0,92.9 360.0,107.9 334.0,92.9 334.0,62.9 360.0,47.9" fill="rgb(193, 161, 141)" stroke="none"/>
<polygon points="431.0,62.9 431.0,92.9 405.0,107.9 379.0,92.9 379.0,62.9 405.0,47.9" fill="rgb(206, 163, 127)" stroke="none"/>
<polygon points="476.0,62.9 476.0,92.9 450.0,107.9 424.0,92.9 424.0,62.9 450.0,47.9" fill="rgb(215, 141, 111)" stroke="none"/>
<polygon points="521.0,62.9 521.0,92.9 495.0,107.9 469.0,92.9 469.0,62.9 495.0,47.9" fill="rgb(196, 116, 121)" stroke="none"/>
<polygon points="566.0,62.9 566.0,92.9 540.0,107.9 514.0,92.9 514.0,62.9 540.0,47.9" fill="rgb(151, 95, 129)" stroke="none"/>
<polygon points="611.0,62.9 611.0,92.9 585.0,107.9 559.0,92.9 559.0,62.9 585.0,47.9" fill="rgb(102, 91, 132)" stroke="none"/>
<polygon points="656.0,62.9 656.0,92.9 630.0,107.9 604.0,92.9 604.0,62.9 630.0,47.9" fill="rgb(83, 93, 132)" stroke="none"/>
<polygon points="701.0,62.9 701.0,92.9 675.0,107.9 649.0,92.9 649.0,62.9 675.0,47.9" fill="rgb(96, 94, 130)" stroke="none"/>
<polygon points="746.0,62.9 746.0,92.9 720.0,107.9 694.0,92.9 694.0,62.9 720.0,47.9" fill="rgb(77, 93, 133)" stroke="none"/>
<polygon points="791.0,62.9 791.0,92.9 765.0,107.9 739.0,92.9 739.0,62.9 765.0,47.9" fill="rgb(50, 98, 133)" stroke="none"/>
<polygon points="836.0,62.9 836.0,92.9 810.0,107.9 784.0,92.9 784.0,62.9 810.0,47.9" fill="rgb(32, 102, 132)" stroke="none"/>
<polygon points="881.0,62.9 881.0,92.9 855.0,107.9 829.0,92.9 829.0,62.9 855.0,47.9" fill="rgb(26, 103, 133)" stroke="none"/>
<polygon points="926.0,62.9 926.0,92.9 900.0,107.9 874.0,92.9 874.0,62.9 900.0,47.9" fill="rgb(26, 103, 133)" stroke="none"/>
<polygon points="48.5,101.9 48.5,131.9 22.5,146.9 -3.5,131.9 -3.5,101.9 22.5,86.9" fill="rgb(35, 193, 239)" stroke="none"/>
<polygon points="93.5,101.9 93.5,131.9 67.5,146.9 41.5,131.9 41.5,101.9 67.5,86.9" fill="rgb(27, 177, 252)" stroke="none"/>
<polygon points="138.5,101.9 138.5,131.9 112.5,146.9 86.5,131.9 86.5,101.9 112.5,86.9" fill="rgb(30, 177, 250)" stroke="none"/>
<polygon points="183.5,101.9 183.5,131.9 157.5,146.9 131.5,131.9 131.5,101.9 157.5,86.9" fill="rgb(83, 182, 212)" stroke="none"/>
<polygon points="228.5,101.9 228.5,131.9 202.5,146.9 176.5,131.9 176.5,101.9 202.5,86.9" fill="rgb(41, 189, 235)" stroke="none"/>
<polygon points="273.5,101.9 273.5,131.9 247.5,146.9 221.5,131.9 221.5,101.9 247.5,86.9" fill="rgb(97, 206, 199)" stroke="none"/>
<polygon points="318.5,101.9 318.5,131.9 292.5,146.9 266.5,131.9 266.5,101.9 292.5,86.9" fill="rgb(129, 189, 180)" stroke="none"/>
<polygon points="363.5,101.9 363.5,131.9 337.5,146.9 311.5,131.9 311.5,101.9 337.5,86.9" fill="rgb(204, 152, 133)" stroke="none"/>
<polygon points="408.5,101.9 408.5,131.9 382.5,146.9 356.5,131.9 356.5,101.9 382.5,86.9" fill="rgb(200, 117, 122)" stroke="none"/>
<polygon points="453.5,101.9 453.5,131.9 427.5,146.9 401.5,131.9 401.5,101.9 427.5,86.9" fill="rgb(192, 110, 120)" stroke="none"/>
<polygon points="498.5,101.9 498.5,131.9 472.5,146.9 446.5,131.9 446.5,101.9 472.5,86.9" fill="rgb(181, 115, 122)" stroke="none"/>
<polygon points="543.5,101.9 543.5,131.9 517.5,146.9 491.5,131.9 491.5,101.9 517.5,86.9" fill="rgb(204, 104, 122)" stroke="none"/>
<polygon points="588.5,101.9 588.5,131.9 562.5,146.9 536.5,131.9 536.5,101.9 562.5,86.9" fill="rgb(144, 93, 130)" stroke="none"/>
<polygon points="633.5,101.9 633.5,131.9 607.5,146.9 581.5,131.9 581.5,101.9 607.5,86.9" fill="rgb(92, 93, 131)" stroke="none"/>
<polygon points="678.5,101.9 678.5,131.9 652.5,146.9 626.5,131.9 626.5,101.9 652.5,86.9" fill="rgb(56, 97, 133)" stroke="none"/>
<polygon points="723.5,101.9 723.5,131.9 697.5,146.9 671.5,131.9 671.5,101.9 697.5,86.9" fill="rgb(46, 99, 133)" stroke="none"/>
<polygon points="768.5,101.9 768.5,131.9 742.5,146.9 716.5,131.9 716.5,101.9 742.5,86.9" fill="rgb(35, 101, 133)" stroke="none"/>
<polygon points="813.5,101.9 813.5,131.9 787.5,146.9 761.5,131.9 761.5,101.9 787.5,86.9" fill="rgb(29, 102, 133)" stroke="none"/>
<polygon points="858.5,101.9 858.5,131.9 832.5,146.9 806.5,131.9 806.5,101.9 832.5,86.9" fill="rgb(26, 103, 133)" stroke="none"/>
<polygon points="903.5,101.9 903.5,131.9 877.5,146.9 851.5,131.9 851.5,101.9 877.5,86.9" fill="rgb(26, 103, 133)" stroke="none"/>
<polygon points="948.5,101.9 948.5,131.9 922.5,146.9 896.5,131.9 896.5,101.9 922.5,86.9" fill="rgb(27, 103, 134)" stroke="none"/>
<polygon points="26.0,140.9 26.0,170.9 0.0,185.9 -26.0,170.9 -26.0,140.9 -0.0,125.9" fill="rgb(63, 219, 222)" stroke="none"/>
<polygon points="71.0,140.9 71.0,170.9 45.0,185.9 19.0,170.9 19.0,140.9 45.0,125.9" fill="rgb(40, 192, 240)" stroke="none"/>
<polygon points="116.0,140.9 116.0,170.9 90.0,185.9 64.0,170.9 64.0,140.9 90.0,125.9" fill="rgb(33, 181, 245)" stroke="none"/>
<polygon points="161.0,140.9 161.0,170.9 135.0,185.9 109.0,170.9 109.0,140.9 135.0,125.9" fill="rgb(56, 186, 226)" stroke="none"/>
<polygon points="206.0,140.9 206.0,170.9 180.0,185.9 154.0,170.9 154.0,140.9 180.0,125.9" fill="rgb(105, 199, 191)" stroke="none"/>
<polygon points="251.0,140.9 251.0,170.9 225.0,185.9 199.0,170.9 199.0,140.9 225.0,125.9" fill="rgb(93, 197, 199)" stroke="none"/>
<polygon points="296.0,140.9 296.0,170.9 270.0,185.9 244.0,170.9 244.0,140.9 270.0,125.9" fill="rgb(177, 172, 154)" stroke="none"/>
<polygon points="341.0,140.9 341.0,170.9 315.0,185.9 289.0,170.9 289.0,140.9 315.0,125.9" fill="rgb(225, 133, 123)" stroke="none"/>
<polygon points="386.0,140.9 386.0,170.9 360.0,185.9 334.0,170.9 334.0,140.9 360.0,125.9" fill="rgb(221, 112, 116)" stroke="none"/>
<polygon points="431.0,140.9 431.0,170.9 405.0,185.9 379.0,170.9 379.0,140.9 405.0,125.9" fill="rgb(199, 99, 120)" stroke="none"/>
<polygon points="476.0,140.9 476.0,170.9 450.0,185.9 424.0,170.9 424.0,140.9 450.0,125.9" fill="rgb(172, 95, 125)" stroke="none"/>
<polygon points="521.0,140.9 521.0,170.9 495.0,185.9 469.0,170.9 469.0,140.9 495.0,125.9" fill="rgb(148, 90, 130)" stroke="none"/>
<polygon points="566.0,140.9 566.0,170.9 540.0,185.9 514.0,170.9 514.0,140.9 540.0,125.9" fill="rgb(150, 92, 129)" stroke="none"/>
<polygon points="611.0,140.9 611.0,170.9 585.0,185.9 559.0,170.9 559.0,140.9 585.0,125.9" fill="rgb(126, 88, 131)" stroke="none"/>
<polygon points="656.0,140.9 656.0,170.9 630.0,185.9 604.0,170.9 604.0,140.9 630.0,125.9" fill="rgb(83, 92, 133)" stroke="none"/>
<polygon points="701.0,140.9 701.0,170.9 675.0,185.9 649.0,170.9 649.0,140.9 675.0,125.9" fill="rgb(33, 101, 131)" stroke="none"/>
<polygon points="746.0,140.9 746.0,170.9 720.0,185.9 694.0,170.9 694.0,140.9 720.0,125.9" fill="rgb(27, 103, 133)" stroke="none"/>
<polygon points="791.0,140.9 791.0,170.9 765.0,185.9 739.0,170.9 739.0,140.9 765.0,125.9" fill="rgb(26, 103, 133)" stroke="none"/>
<polygon points="836.0,140.9 836.0,170.9 810.0,185.9 784.0,170.9 784.0,140.9 810.0,125.9" fill="rgb(26, 103, 133)" stroke="none"/>
<polygon points="881.0,140.9 881.0,170.9 855.0,185.9 829.0,170.9 829.0,140.9 855.0,125.9" fill="rgb(26, 103, 133)" stroke="none"/>
<polygon points="926.0,140.9 926.0,170.9 900.0,185.9 874.0,170.9 874.0,140.9 900.0,125.9" fill="rgb(26, 103, 133)" stroke="none"/>
<polygon points="48.5,179.9 48.5,209.9 22.5,224.9 -3.5,209.9 -3.5,179.9 22.5,164.9" fill="rgb(64, 218, 220)" stroke="none"/>
<polygon points="93.5,179.9 93.5,209.9 67.5,224.9 41.5,209.9 41.5,179.9 67.5,164.9" fill="rgb(58, 203, 223)" stroke="none"/>
<polygon points="138.5,179.9 138.5,209.9 112.5,224.9 86.5,209.9 86.5,179.9 112.5,164.9" fill="rgb(88, 192, 205)" stroke="none"/>
<polygon points="183.5,179.9 183.5,209.9 157.5,224.9 131.5,209.9 131.5,179.9 157.5,164.9" fill="rgb(92, 186, 192)" stroke="none"/>
<polygon points="228.5,179.9 228.5,209.9 202.5,224.9 176.5,209.9 176.5,179.9 202.5,164.9" fill="rgb(125, 185, 167)" stroke="none"/>
<polygon points="273.5,179.9 273.5,209.9 247.5,224.9 221.5,209.9 221.5,179.9 247.5,164.9" fill="rgb(177, 181, 144)" stroke="none"/>
<polygon points="318.5,179.9 318.5,209.9 292.5,224.9 266.5,209.9 266.5,179.9 292.5,164.9" fill="rgb(210, 139, 122)" stroke="none"/>
<polygon points="363.5,179.9 363.5,209.9 337.5,224.9 311.5,209.9 311.5,179.9 337.5,164.9" fill="rgb(159, 96, 122)" stroke="none"/>
<polygon points="408.5,179.9 408.5,209.9 382.5,224.9 356.5,209.9 356.5,179.9 382.5,164.9" fill="rgb(158, 99, 122)" stroke="none"/>
<polygon points="453.5,179.9 453.5,209.9 427.5,224.9 401.5,209.9 401.5,179.9 427.5,164.9" fill="rgb(107, 99, 130)" stroke="none"/>
<polygon points="498.5,179.9 498.5,209.9 472.5,224.9 446.5,209.9 446.5,179.9 472.5,164.9" fill="rgb(105, 91, 131)" stroke="none"/>
<polygon points="543.5,179.9 543.5,209.9 517.5,224.9 491.5,209.9 491.5,179.9 517.5,164.9" fill="rgb(88, 91, 133)" stroke="none"/>
<polygon points="588.5,179.9 588.5,209.9 562.5,224.9 536.5,209.9 536.5,179.9 562.5,164.9" fill="rgb(76, 94, 133)" stroke="none"/>
<polygon points="633.5,179.9 633.5,209.9 607.5,224.9 581.5,209.9 581.5,179.9 607.5,164.9" fill="rgb(56, 97, 133)" stroke="none"/>
<polygon points="678.5,179.9 678.5,209.9 652.5,224.9 626.5,209.9 626.5,179.9 652.5,164.9" fill="rgb(36, 101, 132)" stroke="none"/>
<polygon points="723.5,179.9 723.5,209.9 697.5,224.9 671.5,209.9 671.5,179.9 697.5,164.9" fill="rgb(27, 103, 133)" stroke="none"/>
<polygon points="768.5,179.9 768.5,209.9 742.5,224.9 716.5,209.9 716.5,179.9 742.5,164.9" fill="rgb(26, 103, 133)" stroke="none"/>
<polygon points="813.5,179.9 813.5,209.9 787.5,224.9 761.5,209.9 761.5,179.9 787.5,164.9" fill="rgb(26, 103, 133)" stroke="none"/>
<polygon points="858.5,179.9 858.5,209.9 832.5,224.9 806.5,209.9 806.5,179.9 832.5,164.9" fill="rgb(26, 103, 133)" stroke="none"/>
<polygon points="903.5,179.9 903.5,209.9 877.5,224.9 851.5,209.9 851.5,179.9 877.5,164.9" fill="rgb(26, 103, 133)" stroke="none"/>
<polygon points="948.5,179.9 948.5,209.9 922.5,224.9 896.5,209.9 896.5,179.9 922.5,164.9" fill="rgb(27, 104, 134)" stroke="none"/>
<polygon points="26.0,218.8 26.0,248.8 0.0,263.8 -26.0,248.8 -26.0,218.8 -0.0,203.8" fill="rgb(124, 189, 187)" stroke="none"/>
<polygon points="71.0,218.8 71.0,248.8 45.0,263.8 19.0,248.8 19.0,218.8 45.0,203.8" fill="rgb(102, 205, 196)" stroke="none"/>
<polygon points="116.0,218.8 116.0,248.8 90.0,263.8 64.0,248.8 64.0,218.8 90.0,203.8" fill="rgb(158, 178, 168)" stroke="none"/>
<polygon points="161.0,218.8 161.0,248.8 135.0,263.8 109.0,248.8 109.0,218.8 135.0,203.8" fill="rgb(174, 154, 154)" stroke="none"/>
<polygon points="206.0,218.8 206.0,248.8 180.0,263.8 154.0,248.8 154.0,218.8 180.0,203.8" fill="rgb(175, 120, 132)" stroke="none"/>
<polygon points="251.0,218.8 251.0,248.8 225.0,263.8 199.0,248.8 199.0,218.8 225.0,203.8" fill="rgb(206, 140, 117)" stroke="none"/>
<polygon points="296.0,218.8 296.0,248.8 270.0,263.8 244.0,248.8 244.0,218.8 270.0,203.8" fill="rgb(180, 121, 120)" stroke="none"/>
<polygon points="341.0,218.8 341.0,248.8 315.0,263.8 289.0,248.8 289.0,218.8 315.0,203.8" fill="rgb(104, 101, 126)" stroke="none"/>
<polygon points="386.0,218.8 386.0,248.8 360.0,263.8 334.0,248.8 334.0,218.8 360.0,203.8" fill="rgb(77, 95, 132)" stroke="none"/>
<polygon points="431.0,218.8 431.0,248.8 405.0,263.8 379.0,248.8 379.0,218.8 405.0,203.8" fill="rgb(61, 99, 132)" stroke="none"/>
<polygon points="476.0,218.8 476.0,248.8 450.0,263.8 424.0,248.8 424.0,218.8 450.0,203.8" fill="rgb(35, 101, 132)" stroke="none"/>
<polygon points="521.0,218.8 521.0,248.8 495.0,263.8 469.0,248.8 469.0,218.8 495.0,203.8" fill="rgb(44, 99, 133)" stroke="none"/>
<polygon points="566.0,218.8 566.0,248.8 540.0,263.8 514.0,248.8 514.0,218.8 540.0,203.8" fill="rgb(40, 100, 133)" stroke="none"/>
<polygon points="611.0,218.8 611.0,248.8 585.0,263.8 559.0,248.8 559.0,218.8 585.0,203.8" fill="rgb(29, 102, 133)" stroke="none"/>
<polygon points="656.0,218.8 656.0,248.8 630.0,263.8 604.0,248.8 604.0,218.8 630.0,203.8" fill="rgb(27, 102, 133)" stroke="none"/>
<polygon points="701.0,218.8 701.0,248.8 675.0,263.8 649.0,248.8 649.0,218.8 675.0,203.8" fill="rgb(26, 103, 133)" stroke="none"/>
<polygon points="746.0,218.8 746.0,248.8 720.0,263.8 694.0,248.8 694.0,218.8 720.0,203.8" fill="rgb(26, 102, 133)" stroke="none"/>
<polygon points="791.0,218.8 791.0,248.8 765.0,263.8 739.0,248.8 739.0,218.8 765.0,203.8" fill="rgb(26, 102, 133)" stroke="none"/>
<polygon points="836.0,218.8 836.0,248.8 810.0,263.8 784.0,248.8 784.0,218.8 810.0,203.8" fill="rgb(26, 103, 133)" stroke="none"/>
<polygon points="881.0,218.8 881.0,248.8 855.0,263.8 829.0,248.8 829.0,218.8 855.0,203.8" fill="rgb(26, 103, 133)" stroke="none"/>
<polygon points="926.0,218.8 926.0,248.8 900.0,263.8 874.0,248.8 874.0,218.8 900.0,203.8" fill="rgb(26, 103, 133)" stroke="none"/>
<polygon points="48.5,257.8 48.5,287.8 22.5,302.8 -3.5,287.8 -3.5,257.8 22.5,242.8" fill="rgb(195, 153, 149)" stroke="none"/>
<polygon points="93.5,257.8 93.5,287.8 67.5,302.8 41.5,287.8 41.5,257.8 67.5,242.8" fill="rgb(192, 177, 144)" stroke="none"/>
<polygon points="138.5,257.8 138.5,287.8 112.5,302.8 86.5,287.8 86.5,257.8 112.5,242.8" fill="rgb(230, 150, 121)" stroke="none"/>
<polygon points="183.5,257.8 183.5,287.8 157.5,302.8 131.5,287.8 131.5,257.8 157.5,242.8" fill="rgb(222, 108, 124)" stroke="none"/>
<polygon points="228.5,257.8 228.5,287.8 202.5,302.8 176.5,287.8 176.5,257.8 202.5,242.8" fill="rgb(171, 105, 124)" stroke="none"/>
<polygon points="273.5,257.8 273.5,287.8 247.5,302.8 221.5,287.8 221.5,257.8 247.5,242.8" fill="rgb(182, 102, 121)" stroke="none"/>
<polygon points="318.5,257.8 318.5,287.8 292.5,302.8 266.5,287.8 266.5,257.8 292.5,242.8" fill="rgb(122, 94, 128)" stroke="none"/>
<polygon points="363.5,257.8 363.5,287.8 337.5,302.8 311.5,287.8 311.5,257.8 337.5,242.8" fill="rgb(49, 98, 133)" stroke="none"/>
<polygon points="408.5,257.8 408.5,287.8 382.5,302.8 356.5,287.8 356.5,257.8 382.5,242.8" fill="rgb(54, 98, 133)" stroke="none"/>
<polygon points="453.5,257.8 453.5,287.8 427.5,302.8 401.5,287.8 401.5,257.8 427.5,242.8" fill="rgb(33, 102, 134)" stroke="none"/>
<polygon points="498.5,257.8 498.5,287.8 472.5,302.8 446.5,287.8 446.5,257.8 472.5,242.8" fill="rgb(27, 103, 133)" stroke="none"/>
<polygon points="543.5,257.8 543.5,287.8 517.5,302.8 491.5,287.8 491.5,257.8 517.5,242.8" fill="rgb(29, 103, 133)" stroke="none"/>
<polygon points="588.5,257.8 588.5,287.8 562.5,302.8 536.5,287.8 536.5,257.8 562.5,242.8" fill="rgb(27, 103, 133)" stroke="none"/>
<polygon points="633.5,257.8 633.5,287.8 607.5,302.8 581.5,287.8 581.5,257.8 607.5,242.8" fill="rgb(26, 103, 133)" stroke="none"/>
<polygon points="678.5,257.8 678.5,287.8 652.5,302.8 626.5,287.8 626.5,257.8 652.5,242.8" fill="rgb(27, 102, 132)" stroke="none"/>
<polygon points="723.5,257.8 723.5,287.8 697.5,302.8 671.5,287.8 671.5,257.8 697.5,242.8" fill="rgb(28, 102, 132)" stroke="none"/>
<polygon points="768.5,257.8 768.5,287.8 742.5,302.8 716.5,287.8 716.5,257.8 742.5,242.8" fill="rgb(26, 103, 133)" stroke="none"/>
<polygon points="813.5,257.8 813.5,287.8 787.5,302.8 761.5,287.8 761.5,257.8 787.5,242.8" fill="rgb(27, 102, 133)" stroke="none"/>
<polygon points="858.5,257.8 858.5,287.8 832.5,302.8 806.5,287.8 806.5,257.8 832.5,242.8" fill="rgb(27, 103, 133)" stroke="none"/>
<polygon points="903.5,257.8 903.5,287.8 877.5,302.8 851.5,287.8 851.5,257.8 877.5,242.8" fill="rgb(26, 102, 133)" stroke="none"/>
<polygon points="948.5,257.8 948.5,287.8 922.5,302.8 896.5,287.8 896.5,257.8 922.5,242.8" fill="rgb(26, 102, 133)" stroke="none"/>
<polygon points="26.0,296.8 26.0,326.8 0.0,341.8 -26.0,326.8 -26.0,296.8 -0.0,281.8" fill="rgb(230, 135, 127)" stroke="none"/>
<polygon points="71.0,296.8 71.0,326.8 45.0,341.8 19.0,326.8 19.0,296.8 45.0,281.8" fill="rgb(241, 128, 120)" stroke="none"/>
<polygon points="116.0,296.8 116.0,326.8 90.0,341.8 64.0,326.8 64.0,296.8 90.0,281.8" fill="rgb(246, 123, 115)" stroke="none"/>
<polygon points="161.0,296.8 161.0,326.8 135.0,341.8 109.0,326.8 109.0,296.8 135.0,281.8" fill="rgb(232, 111, 119)" stroke="none"/>
<polygon points="206.0,296.8 206.0,326.8 180.0,341.8 154.0,326.8 154.0,296.8 180.0,281.8" fill="rgb(145, 96, 128)" stroke="none"/>
<polygon points="251.0,296.8 251.0,326.8 225.0,341.8 199.0,326.8 199.0,296.8 225.0,281.8" fill="rgb(117, 92, 129)" stroke="none"/>
<polygon points="296.0,296.8 296.0,326.8 270.0,341.8 244.0,326.8 244.0,296.8 270.0,281.8" fill="rgb(130, 93, 129)" stroke="none"/>
<polygon points="341.0,296.8 341.0,326.8 315.0,341.8 289.0,326.8 289.0,296.8 315.0,281.8" fill="rgb(69, 96, 132)" stroke="none"/>
<polygon points="386.0,296.8 386.0,326.8 360.0,341.8 334.0,326.8 334.0,296.8 360.0,281.8" fill="rgb(27, 103, 133)" stroke="none"/>
<polygon points="431.0,296.8 431.0,326.8 405.0,341.8 379.0,326.8 379.0,296.8 405.0,281.8" fill="rgb(27, 103, 133)" stroke="none"/>
<polygon points="476.0,296.8 476.0,326.8 450.0,341.8 424.0,326.8 424.0,296.8 450.0,281.8" fill="rgb(26, 103, 133)" stroke="none"/>
<polygon points="521.0,296.8 521.0,326.8 495.0,341.8 469.0,326.8 469.0,296.8 495.0,281.8" fill="rgb(26, 103, 133)" stroke="none"/>
<polygon points="566.0,296.8 566.0,326.8 540.0,341.8 514.0,326.8 514.0,296.8 540.0,281.8" fill="rgb(27, 103, 133)" stroke="none"/>
<polygon points="611.0,296.8 611.0,326.8 585.0,341.8 559.0,326.8 559.0,296.8 585.0,281.8" fill="rgb(27, 103, 133)" stroke="none"/>
<polygon points="656.0,296.8 656.0,326.8 630.0,341.8 604.0,326.8 604.0,296.8 630.0,281.8" fill="rgb(26, 102, 133)" stroke="none"/>
<polygon points="701.0,296.8 701.0,326.8 675.0,341.8 649.0,326.8 649.0,296.8 675.0,281.8" fill="rgb(27, 102, 132)" stroke="none"/>
<polygon points="746.0,296.8 746.0,326.8 720.0,341.8 694.0,326.8 694.0,296.8 720.0,281.8" fill="rgb(27, 103, 133)" stroke="none"/>
<polygon points="791.0,296.8 791.0,326.8 765.0,341.8 739.0,326.8 739.0,296.8 765.0,281.8" fill="rgb(26, 103, 133)" stroke="none"/>
<polygon points="836.0,296.8 836.0,326.8 810.0,341.8 784.0,326.8 784.0,296.8 810.0,281.8" fill="rgb(27, 103, 133)" stroke="none"/>
<polygon points="881.0,296.8 881.0,326.8 855.0,341.8 829.0,326.8 829.0,296.8 855.0,281.8" fill="rgb(26, 103, 133)" stroke="none"/>
<polygon points="926.0,296.8 926.0,326.8 900.0,341.8 874.0,326.8 874.0,296.8 900.0,281.8" fill="rgb(26, 102, 133)" stroke="none"/>
<polygon points="48.5,335.7 48.5,365.7 22.5,380.7 -3.5,365.7 -3.5,335.7 22.5,320.7" fill="rgb(246, 114, 119)" stroke="none"/>
<polygon points="93.5,335.7 93.5,365.7 67.5,380.7 41.5,365.7 41.5,335.7 67.5,320.7" fill="rgb(199, 101, 124)" stroke="none"/>
<polygon points="138.5,335.7 138.5,365.7 112.5,380.7 86.5,365.7 86.5,335.7 112.5,320.7" fill="rgb(184, 98, 122)" stroke="none"/>
<polygon points="183.5,335.7 183.5,365.7 157.5,380.7 131.5,365.7 131.5,335.7 157.5,320.7" fill="rgb(146, 92, 127)" stroke="none"/>
<polygon points="228.5,335.7 228.5,365.7 202.5,380.7 176.5,365.7 176.5,335.7 202.5,320.7" fill="rgb(82, 93, 133)" stroke="none"/>
<polygon points="273.5,335.7 273.5,365.7 247.5,380.7 221.5,365.7 221.5,335.7 247.5,320.7" fill="rgb(50, 98, 132)" stroke="none"/>
<polygon points="318.5,335.7 318.5,365.7 292.5,380.7 266.5,365.7 266.5,335.7 292.5,320.7" fill="rgb(39, 100, 133)" stroke="none"/>
<polygon points="363.5,335.7 363.5,365.7 337.5,380.7 311.5,365.7 311.5,335.7 337.5,320.7" fill="rgb(31, 102, 133)" stroke="none"/>
<polygon points="408.5,335.7 408.5,365.7 382.5,380.7 356.5,365.7 356.5,335.7 382.5,320.7" fill="rgb(26, 103, 133)" stroke="none"/>
<polygon points="453.5,335.7 453.5,365.7 427.5,380.7 401.5,365.7 401.5,335.7 427.5,320.7" fill="rgb(26, 103, 133)" stroke="none"/>
<polygon points="498.5,335.7 498.5,365.7 472.5,380.7 446.5,365.7 446.5,335.7 472.5,320.7" fill="rgb(26, 103, 133)" stroke="none"/>
<polygon points="543.5,335.7 543.5,365.7 517.5,380.7 491.5,365.7 491.5,335.7 517.5,320.7" fill="rgb(26, 103, 133)" stroke="none"/>
<polygon points="588.5,335.7 588.5,365.7 562.5,380.7 536.5,365.7 536.5,335.7 562.5,320.7" fill="rgb(27, 103, 133)" stroke="none"/>
<polygon points="633.5,335.7 633.5,365.7 607.5,380.7 581.5,365.7 581.5,335.7 607.5,320.7" fill="rgb(26, 102, 133)" stroke="none"/>
<polygon points="678.5,335.7 678.5,365.7 652.5,380.7 626.5,365.7 626.5,335.7 652.5,320.7" fill="rgb(26, 102, 133)" stroke="none"/>
<polygon points="723.5,335.7 723.5,365.7 697.5,380.7 671.5,365.7 671.5,335.7 697.5,320.7" fill="rgb(26, 102, 133)" stroke="none"/>
<polygon points="768.5,335.7 768.5,365.7 742.5,380.7 716.5,365.7 716.5,335.7 742.5,320.7" fill="rgb(27, 103, 133)" stroke="none"/>
<polygon points="813.5,335.7 813.5,365.7 787.5,380.7 761.5,365.7 761.5,335.7 787.5,320.7" fill="rgb(26, 103, 133)" stroke="none"/>
<polygon points="858.5,335.7 858.5,365.7 832.5,380.7 806.5,365.7 806.5,335.7 832.5,320.7" fill="rgb(26, 103, 133)" stroke="none"/>
<polygon points="903.5,335.7 903.5,365.7 877.5,380.7 851.5,365.7 851.5,335.7 877.5,320.7" fill="rgb(26, 103, 133)" stroke="none"/>
<polygon points="948.5,335.7 948.5,365.7 922.5,380.7 896.5,365.7 896.5,335.7 922.5,320.7" fill="rgb(27, 102, 132)" stroke="none"/>
<polygon points="26.0,374.7 26.0,404.7 0.0,419.7 -26.0,404.7 -26.0,374.7 -0.0,359.7" fill="rgb(230, 104, 123)" stroke="none"/>
<polygon points="71.0,374.7 71.0,404.7 45.0,419.7 19.0,404.7 19.0,374.7 45.0,359.7" fill="rgb(194, 99, 125)" stroke="none"/>
<polygon points="116.0,374.7 116.0,404.7 90.0,419.7 64.0,404.7 64.0,374.7 90.0,359.7" fill="rgb(101, 94, 129)" stroke="none"/>
<polygon points="161.0,374.7 161.0,404.7 135.0,419.7 109.0,404.7 109.0,374.7 135.0,359.7" fill="rgb(101, 91, 131)" stroke="none"/>
<polygon points="206.0,374.7 206.0,404.7 180.0,419.7 154.0,404.7 154.0,374.7 180.0,359.7" fill="rgb(83, 91, 133)" stroke="none"/>
<polygon points="251.0,374.7 251.0,404.7 225.0,419.7 199.0,404.7 199.0,374.7 225.0,359.7" fill="rgb(44, 98, 132)" stroke="none"/>
<polygon points="296.0,374.7 296.0,404.7 270.0,419.7 244.0,404.7 244.0,374.7 270.0,359.7" fill="rgb(27, 102, 133)" stroke="none"/>
<polygon points="341.0,374.7 341.0,404.7 315.0,419.7 289.0,404.7 289.0,374.7 315.0,359.7" fill="rgb(27, 103, 133)" stroke="none"/>
<polygon points="386.0,374.7 386.0,404.7 360.0,419.7 334.0,404.7 334.0,374.7 360.0,359.7" fill="rgb(26, 103, 133)" stroke="none"/>
<polygon points="431.0,374.7 431.0,404.7 405.0,419.7 379.0,404.7 379.0,374.7 405.0,359.7" fill="rgb(26, 103, 133)" stroke="none"/>
<polygon points="476.0,374.7 476.0,404.7 450.0,419.7 424.0,404.7 424.0,374.7 450.0,359.7" fill="rgb(26, 103, 133)" stroke="none"/>
<polygon points="521.0,374.7 521.0,404.7 495.0,419.7 469.0,404.7 469.0,374.7 495.0,359.7" fill="rgb(28, 102, 132)" stroke="none"/>
<polygon points="566.0,374.7 566.0,404.7 540.0,419.7 514.0,404.7 514.0,374.7 540.0,359.7" fill="rgb(27, 103, 133)" stroke="none"/>
<polygon points="611.0,374.7 611.0,404.7 585.0,419.7 559.0,404.7 559.0,374.7 585.0,359.7" fill="rgb(26, 103, 133)" stroke="none"/>
<polygon points="656.0,374.7 656.0,404.7 630.0,419.7 604.0,404.7 604.0,374.7 630.0,359.7" fill="rgb(26, 102, 133)" stroke="none"/>
<polygon points="701.0,374.7 701.0,404.7 675.0,419.7 649.0,404.7 649.0,374.7 675.0,359.7" fill="rgb(26, 102, 133)" stroke="none"/>
<polygon points="746.0,374.7 746.0,404.7 720.0,419.7 694.0,404.7 694.0,374.7 720.0,359.7" fill="rgb(27, 103, 133)" stroke="none"/>
<polygon points="791.0,374.7 791.0,404.7 765.0,419.7 739.0,404.7 739.0,374.7 765.0,359.7" fill="rgb(27, 103, 133)" stroke="none"/>
<polygon points="836.0,374.7 836.0,404.7 810.0,419.7 784.0,404.7 784.0,374.7 810.0,359.7" fill="rgb(26, 103, 133)" stroke="none"/>
<polygon points="881.0,374.7 881.0,404.7 855.0,419.7 829.0,404.7 829.0,374.7 855.0,359.7" fill="rgb(26, 102, 133)" stroke="none"/>
<polygon points="926.0,374.7 926.0,404.7 900.0,419.7 874.0,404.7 874.0,374.7 900.0,359.7" fill="rgb(26, 102, 133)" stroke="none"/>
<polygon points="48.5,413.7 48.5,443.7 22.5,458.7 -3.5,443.7 -3.5,413.7 22.5,398.7" fill="rgb(145, 95, 126)" stroke="none"/>
<polygon points="93.5,413.7 93.5,443.7 67.5,458.7 41.5,443.7 41.5,413.7 67.5,398.7" fill="rgb(77, 96, 130)" stroke="none"/>
<polygon points="138.5,413.7 138.5,443.7 112.5,458.7 86.5,443.7 86.5,413.7 112.5,398.7" fill="rgb(44, 99, 132)" stroke="none"/>
<polygon points="183.5,413.7 183.5,443.7 157.5,458.7 131.5,443.7 131.5,413.7 157.5,398.7" fill="rgb(52, 97, 133)" stroke="none"/>
<polygon points="228.5,413.7 228.5,443.7 202.5,458.7 176.5,443.7 176.5,413.7 202.5,398.7" fill="rgb(34, 101, 133)" stroke="none"/>
<polygon points="273.5,413.7 273.5,443.7 247.5,458.7 221.5,443.7 221.5,413.7 247.5,398.7" fill="rgb(27, 103, 133)" stroke="none"/>
<polygon points="318.5,413.7 318.5,443.7 292.5,458.7 266.5,443.7 266.5,413.7 292.5,398.7" fill="rgb(26, 103, 133)" stroke="none"/>
<polygon points="363.5,413.7 363.5,443.7 337.5,458.7 311.5,443.7 311.5,413.7 337.5,398.7" fill="rgb(26, 103, 133)" stroke="none"/>
<polygon points="408.5,413.7 408.5,443.7 382.5,458.7 356.5,443.7 356.5,413.7 382.5,398.7" fill="rgb(26, 103, 133)" stroke="none"/>
<polygon points="453.5,413.7 453.5,443.7 427.5,458.7 401.5,443.7 401.5,413.7 427.5,398.7" fill="rgb(26, 103, 133)" stroke="none"/>
<polygon points="498.5,413.7 498.5,443.7 472.5,458.7 446.5,443.7 446.5,413.7 472.5,398.7" fill="rgb(26, 103, 133)" stroke="none"/>
<polygon points="543.5,413.7 543.5,443.7 517.5,458.7 491.5,443.7 491.5,413.7 517.5,398.7" fill="rgb(28, 103, 133)" stroke="none"/>
<polygon points="588.5,413.7 588.5,443.7 562.5,458.7 536.5,443.7 536.5,413.7 562.5,398.7" fill="rgb(26, 103, 133)" stroke="none"/>
<polygon points="633.5,413.7 633.5,443.7 607.5,458.7 581.5,443.7 581.5,413.7 607.5,398.7" fill="rgb(26, 103, 133)" stroke="none"/>
<polygon points="678.5,413.7 678.5,443.7 652.5,458.7 626.5,443.7 626.5,413.7 652.5,398.7" fill="rgb(26, 103, 133)" stroke="none"/>
<polygon points="723.5,413.7 723.5,443.7 697.5,458.7 671.5,443.7 671.5,413.7 697.5,398.7" fill="rgb(26, 103, 133)" stroke="none"/>
<polygon points="768.5,413.7 768.5,443.7 742.5,458.7 716.5,443.7 716.5,413.7 742.5,398.7" fill="rgb(26, 103, 133)" stroke="none"/>
<polygon points="813.5,413.7 813.5,443.7 787.5,458.7 761.5,443.7 761.5,413.7 787.5,398.7" fill="rgb(27, 102, 133)" stroke="none"/>
<polygon points="858.5,413.7 858.5,443.7 832.5,458.7 806.5,443.7 806.5,413.7 832.5,398.7" fill="rgb(27, 102, 133)" stroke="none"/>
<polygon points="903.5,413.7 903.5,443.7 877.5,458.7 851.5,443.7 851.5,413.7 877.5,398.7" fill="rgb(27, 102, 133)" stroke="none"/>
<polygon points="948.5,413.7 948.5,443.7 922.5,458.7 896.5,443.7 896.5,413.7 922.5,398.7" fill="rgb(27, 102, 133)" stroke="none"/>
<polygon points="26.0,452.7 26.0,482.7 0.0,497.7 -26.0,482.7 -26.0,452.7 -0.0,437.7" fill="rgb(125, 88, 133)" stroke="none"/>
<polygon points="71.0,452.7 71.0,482.7 45.0,497.7 19.0,482.7 19.0,452.7 45.0,437.7" fill="rgb(67, 97, 133)" stroke="none"/>
<polygon points="116.0,452.7 116.0,482.7 90.0,497.7 64.0,482.7 64.0,452.7 90.0,437.7" fill="rgb(27, 102, 132)" stroke="none"/>
<polygon points="161.0,452.7 161.0,482.7 135.0,497.7 109.0,482.7 109.0,452.7 135.0,437.7" fill="rgb(27, 103, 133)" stroke="none"/>
<polygon points="206.0,452.7 206.0,482.7 180.0,497.7 154.0,482.7 154.0,452.7 180.0,437.7" fill="rgb(28, 103, 133)" stroke="none"/>
<polygon points="251.0,452.7 251.0,482.7 225.0,497.7 199.0,482.7 199.0,452.7 225.0,437.7" fill="rgb(26, 103, 133)" stroke="none"/>
<polygon points="296.0,452.7 296.0,482.7 270.0,497.7 244.0,482.7 244.0,452.7 270.0,437.7" fill="rgb(26, 103, 133)" stroke="none"/>
<polygon points="341.0,452.7 341.0,482.7 315.0,497.7 289.0,482.7 289.0,452.7 315.0,437.7" fill="rgb(26, 103, 133)" stroke="none"/>
<polygon points="386.0,452.7 386.0,482.7 360.0,497.7 334.0,482.7 334.0,452.7 360.0,437.7" fill="rgb(27, 102, 133)" stroke="none"/>
<polygon points="431.0,452.7 431.0,482.7 405.0,497.7 379.0,482.7 379.0,452.7 405.0,437.7" fill="rgb(26, 103, 133)" stroke="none"/>
<polygon points="476.0,452.7 476.0,482.7 450.0,497.7 424.0,482.7 424.0,452.7 450.0,437.7" fill="rgb(26, 102, 133)" stroke="none"/>
<polygon points="521.0,452.7 521.0,482.7 495.0,497.7 469.0,482.7 469.0,452.7 495.0,437.7" fill="rgb(26, 103, 133)" stroke="none"/>
<polygon points="566.0,452.7 566.0,482.7 540.0,497.7 514.0,482.7 514.0,452.7 540.0,437.7" fill="rgb(27, 103, 133)" stroke="none"/>
<polygon points="611.0,452.7 611.0,482.7 585.0,497.7 559.0,482.7 559.0,452.7 585.0,437.7" fill="rgb(26, 103, 133)" stroke="none"/>
<polygon points="656.0,452.7 656.0,482.7 630.0,497.7 604.0,482.7 604.0,452.7 630.0,437.7" fill="rgb(26, 103, 133)" stroke="none"/>
<polygon points="701.0,452.7 701.0,482.7 675.0,497.7 649.0,482.7 649.0,452.7 675.0,437.7" fill="rgb(26, 103, 133)" stroke="none"/>
<polygon points="746.0,452.7 746.0,482.7 720.0,497.7 694.0,482.7 694.0,452.7 720.0,437.7" fill="rgb(26, 103, 133)" stroke="none"/>
<polygon points="791.0,452.7 791.0,482.7 765.0,497.7 739.0,482.7 739.0,452.7 765.0,437.7" fill="rgb(26, 103, 133)" stroke="none"/>
<polygon points="836.0,452.7 836.0,482.7 810.0,497.7 784.0,482.7 784.0,452.7 810.0,437.7" fill="rgb(26, 103, 133)" stroke="none"/>
<polygon points="881.0,452.7 881.0,482.7 855.0,497.7 829.0,482.7 829.0,452.7 855.0,437.7" fill="rgb(27, 102, 132)" stroke="none"/>
<polygon points="926.0,452.7 926.0,482.7 900.0,497.7 874.0,482.7 874.0,452.7 900.0,437.7" fill="rgb(27, 103, 133)" stroke="none"/>
<polygon points="48.5,491.6 48.5,521.6 22.5,536.6 -3.5,521.6 -3.5,491.6 22.5,476.6" fill="rgb(54, 98, 133)" stroke="none"/>
<polygon points="93.5,491.6 93.5,521.6 67.5,536.6 41.5,521.6 41.5,491.6 67.5,476.6" fill="rgb(26, 103, 133)" stroke="none"/>
<polygon points="138.5,491.6 138.5,521.6 112.5,536.6 86.5,521.6 86.5,491.6 112.5,476.6" fill="rgb(26, 103, 133)" stroke="none"/>
<polygon points="183.5,491.6 183.5,521.6 157.5,536.6 131.5,521.6 131.5,491.6 157.5,476.6" fill="rgb(27, 103, 133)" stroke="none"/>
<polygon points="228.5,491.6 228.5,521.6 202.5,536.6 176.5,521.6 176.5,491.6 202.5,476.6" fill="rgb(27, 102, 132)" stroke="none"/>
<polygon points="273.5,491.6 273.5,521.6 247.5,536.6 221.5,521.6 221.5,491.6 247.5,476.6" fill="rgb(26, 103, 133)" stroke="none"/>
<polygon points="318.5,491.6 318.5,521.6 292.5,536.6 266.5,521.6 266.5,491.6 292.5,476.6" fill="rgb(26, 102, 133)" stroke="none"/>
<polygon points="363.5,491.6 363.5,521.6 337.5,536.6 311.5,521.6 311.5,491.6 337.5,476.6" fill="rgb(26, 102, 133)" stroke="none"/>
<polygon points="408.5,491.6 408.5,521.6 382.5,536.6 356.5,521.6 356.5,491.6 382.5,476.6" fill="rgb(27, 102, 133)" stroke="none"/>
<polygon points="453.5,491.6 453.5,521.6 427.5,536.6 401.5,521.6 401.5,491.6 427.5,476.6" fill="rgb(26, 103, 133)" stroke="none"/>
<polygon points="498.5,491.6 498.5,521.6 472.5,536.6 446.5,521.6 446.5,491.6 472.5,476.6" fill="rgb(26, 102, 133)" stroke="none"/>
<polygon points="543.5,491.6 543.5,521.6 517.5,536.6 491.5,521.6 491.5,491.6 517.5,476.6" fill="rgb(27, 103, 133)" stroke="none"/>
<polygon points="588.5,491.6 588.5,521.6 562.5,536.6 536.5,521.6 536.5,491.6 562.5,476.6" fill="rgb(27, 104, 134)" stroke="none"/>
<polygon points="633.5,491.6 633.5,521.6 607.5,536.6 581.5,521.6 581.5,491.6 607.5,476.6" fill="rgb(27, 104, 134)" stroke="none"/>
<polygon points="678.5,491.6 678.5,521.6 652.5,536.6 626.5,521.6 626.5,491.6 652.5,476.6" fill="rgb(27, 103, 133)" stroke="none"/>
<polygon points="723.5,491.6 723.5,521.6 697.5,536.6 671.5,521.6 671.5,491.6 697.5,476.6" fill="rgb(26, 103, 133)" stroke="none"/>
<polygon points="768.5,491.6 768.5,521.6 742.5,536.6 716.5,521.6 716.5,491.6 742.5,476.6" fill="rgb(26, 103, 133)" stroke="none"/>
<polygon points="813.5,491.6 813.5,521.6 787.5,536.6 761.5,521.6 761.5,491.6 787.5,476.6" fill="rgb(27, 104, 134)" stroke="none"/>
<polygon points="858.5,491.6 858.5,521.6 832.5,536.6 806.5,521.6 806.5,491.6 832.5,476.6" fill="rgb(26, 102, 133)" stroke="none"/>
<polygon points="903.5,491.6 903.5,521.6 877.5,536.6 851.5,521.6 851.5,491.6 877.5,476.6" fill="rgb(27, 102, 132)" stroke="none"/>
<polygon points="948.5,491.6 948.5,521.6 922.5,536.6 896.5,521.6 896.5,491.6 922.5,476.6" fill="rgb(27, 101, 133)" stroke="none"/>
<polygon points="26.0,530.6 26.0,560.6 0.0,575.6 -26.0,560.6 -26.0,530.6 -0.0,515.6" fill="rgb(0, 0, 0)" stroke="none"/>
<polygon points="71.0,530.6 71.0,560.6 45.0,575.6 19.0,560.6 19.0,530.6 45.0,515.6" fill="rgb(0, 0, 0)" stroke="none"/>
<polygon points="116.0,530.6 116.0,560.6 90.0,575.6 64.0,560.6 64.0,530.6 90.0,515.6" fill="rgb(0, 0, 0)" stroke="none"/>
<polygon points="161.0,530.6 161.0,560.6 135.0,575.6 109.0,560.6 109.0,530.6 135.0,515.6" fill="rgb(0, 0, 0)" stroke="none"/>
<polygon points="206.0,530.6 206.0,560.6 180.0,575.6 154.0,560.6 154.0,530.6 180.0,515.6" fill="rgb(0, 0, 0)" stroke="none"/>
<polygon points="251.0,530.6 251.0,560.6 225.0,575.6 199.0,560.6 199.0,530.6 225.0,515.6" fill="rgb(0, 0, 0)" stroke="none"/>
<polygon points="296.0,530.6 296.0,560.6 270.0,575.6 244.0,560.6 244.0,530.6 270.0,515.6" fill="rgb(0, 0, 0)" stroke="none"/>
<polygon points="341.0,530.6 341.0,560.6 315.0,575.6 289.0,560.6 289.0,530.6 315.0,515.6" fill="rgb(0, 0, 0)" stroke="none"/>
<polygon points="386.0,530.6 386.0,560.6 360.0,575.6 334.0,560.6 334.0,530.6 360.0,515.6" fill="rgb(0, 0, 0)" stroke="none"/>
<polygon points="431.0,530.6 431.0,560.6 405.0,575.6 379.0,560.6 379.0,530.6 405.0,515.6" fill="rgb(0, 0, 0)" stroke="none"/>
<polygon points="476.0,530.6 476.0,560.6 450.0,575.6 424.0,560.6 424.0,530.6 450.0,515.6" fill="rgb(0, 0, 0)" stroke="none"/>
<polygon points="521.0,530.6 521.0,560.6 495.0,575.6 469.0,560.6 469.0,530.6 495.0,515.6" fill="rgb(0, 0, 0)" stroke="none"/>
<polygon points="566.0,530.6 566.0,560.6 540.0,575.6 514.0,560.6 514.0,530.6 540.0,515.6" fill="rgb(0, 0, 0)" stroke="none"/>
<polygon points="611.0,530.6 611.0,560.6 585.0,575.6 559.0,560.6 559.0,530.6 585.0,515.6" fill="rgb(0, 0, 0)" stroke="none"/>
<polygon points="656.0,530.6 656.0,560.6 630.0,575.6 604.0,560.6 604.0,530.6 630.0,515.6" fill="rgb(0, 0, 0)" stroke="none"/>
<polygon points="701.0,530.6 701.0,560.6 675.0,575.6 649.0,560.6 649.0,530.6 675.0,515.6" fill="rgb(0, 0, 0)" stroke="none"/>
<polygon points="746.0,530.6 746.0,560.6 720.0,575.6 694.0,560.6 694.0,530.6 720.0,515.6" fill="rgb(0, 0, 0)" stroke="none"/>
<polygon points="791.0,530.6 791.0,560.6 765.0,575.6 739.0,560.6 739.0,530.6 765.0,515.6" fill="rgb(0, 0, 0)" stroke="none"/>
<polygon points="836.0,530.6 836.0,560.6 810.0,575.6 784.0,560.6 784.0,530.6 810.0,515.6" fill="rgb(0, 0, 0)" stroke="none"/>
<polygon points="881.0,530.6 881.0,560.6 855.0,575.6 829.0,560.6 829.0,530.6 855.0,515.6" fill="rgb(0, 0, 0)" stroke="none"/>
<polygon points="926.0,530.6 926.0,560.6 900.0,575.6 874.0,560.6 874.0,530.6 900.0,515.6" fill="rgb(0, 0, 0)" stroke="none"/>
</svg>
